<svg width="15" height="15" viewBox="0 0 15 15" fill="none" xmlns="http://www.w3.org/2000/svg">
<g id="noto:star">
<path id="Vector" d="M7.9746 0.847022L9.55195 4.44468C9.61128 4.58007 9.70586 4.69706 9.82583 4.78343C9.9458 4.8698 10.0868 4.92238 10.234 4.93569L14.0766 5.28022C14.5113 5.34351 14.6848 5.87671 14.3695 6.18374L11.475 8.61538C11.2406 8.81226 11.134 9.12163 11.1984 9.42046L12.0398 13.3591C12.1137 13.7916 11.6601 14.122 11.2711 13.9169L7.91718 11.9529C7.79069 11.8786 7.64667 11.8395 7.49999 11.8395C7.35332 11.8395 7.2093 11.8786 7.08281 11.9529L3.7289 13.9158C3.34101 14.1197 2.88632 13.7904 2.96015 13.358L3.80156 9.41929C3.86484 9.12046 3.75937 8.81108 3.52499 8.61421L0.629291 6.18491C0.315228 5.87905 0.488666 5.34468 0.922259 5.2814L4.76484 4.93687C4.91206 4.92356 5.05301 4.87097 5.17298 4.7846C5.29295 4.69823 5.38754 4.58124 5.44687 4.44585L7.02421 0.848193C7.21992 0.454444 7.78007 0.454444 7.9746 0.847022Z" fill="#FDD835"/>
<path id="Vector_2" d="M7.85977 4.66045L7.59258 2.00967C7.58203 1.86201 7.55156 1.60889 7.78828 1.60889C7.97578 1.60889 8.07773 1.99912 8.07773 1.99912L8.8793 4.12725C9.18164 4.93701 9.05742 5.21475 8.76562 5.37881C8.43047 5.56631 7.93594 5.41982 7.85977 4.66045Z" fill="#FFFF8D"/>
<path id="Vector_3" d="M11.1656 8.38018L13.4648 6.58603C13.5785 6.49111 13.7836 6.33994 13.6195 6.16767C13.4894 6.03174 13.1379 6.22744 13.1379 6.22744L11.1258 7.01377C10.5258 7.22119 10.1273 7.52822 10.0922 7.91494C10.0465 8.43057 10.5093 8.82783 11.1656 8.38018Z" fill="#F4B400"/>
</g>
</svg>
